<svg xmlns="http://www.w3.org/2000/svg" xmlns:xlink="http://www.w3.org/1999/xlink" width="79" height="79" viewBox="0 0 79 79"><defs><path id="oiu3a" d="M304 797.6v1.8c0 1.48-1.2 2.68-2.69 2.68h-3.1a15.92 15.92 0 0 1-1.99 4.86l1.98 1.99a2.69 2.69 0 0 1 0 3.8l-1.9 1.9a2.69 2.69 0 0 1-3.8 0l-2.1-2.08c-1.36.76-2.8 1.32-4.32 1.66v3.1c0 1.49-1.2 2.7-2.68 2.7h-2.7a2.69 2.69 0 0 1-2.68-2.7v-3.33a15.99 15.99 0 0 1-3.74-1.66l-3.92 3.92a.89.89 0 0 1-.27.18l-7.83 3.5a.9.9 0 0 1-1.18-1.18l3.5-7.83h-.01c.04-.1.1-.2.17-.27l3.91-3.92c-.86-1.44-1.49-3-1.86-4.64h-3.1a2.69 2.69 0 0 1-2.69-2.68v-1.8c0-1.48 1.2-2.68 2.69-2.68h3.1c.34-1.52.9-2.97 1.66-4.32l-2.55-2.56a2.69 2.69 0 0 1 0-3.8l1.9-1.87a2.69 2.69 0 0 1 3.8 0l2.43 2.44a15.96 15.96 0 0 1 3.99-1.8v-3.32c0-1.49 1.2-2.7 2.69-2.7h2.69c1.48 0 2.68 1.21 2.68 2.7v3.1c1.64.37 3.2 1 4.64 1.87l7.34-7.34a.9.9 0 0 1 1.26 0l4.36 4.36a.9.9 0 0 1 0 1.26l-7.34 7.34c.86 1.43 1.5 3 1.87 4.64h3.1c1.49 0 2.69 1.2 2.69 2.68zm-8.2-15.48l3.07 3.08 2.9-2.89-3.08-3.09zm-3.56 3.55c1.16.89 2.2 1.93 3.09 3.1l2.28-2.3-3.09-3.08zm-24.07 29.66l-2.48-2.5-2 4.48zm21.36-20.76a8.12 8.12 0 0 0-3.09-3.1l-19.8 19.8 3.08 3.09zm-14.8 6.07l9.91-9.9a8.05 8.05 0 0 0-9.9 9.9zm5.63 5.63a8.07 8.07 0 0 0 9.9-9.91zm21.85-8.67c0-.5-.4-.9-.9-.9h-3.81a.9.9 0 0 1-.9-.73 14.33 14.33 0 0 0-11.57-11.55.9.9 0 0 1-.73-.9v-3.83c0-.5-.4-.9-.9-.9h-2.68c-.5 0-.9.4-.9.9v4a.9.9 0 0 1-.69.9 14.2 14.2 0 0 0-4.71 2.08.9.9 0 0 1-1.14-.11l-2.95-2.95a.9.9 0 0 0-1.27 0l-1.88 1.9a.9.9 0 0 0 0 1.27l3.05 3.05c.3.3.34.75.12 1.1a14.2 14.2 0 0 0-1.93 5.04.9.9 0 0 1-.9.74h-3.83c-.5 0-.9.4-.9.9v1.79c0 .5.4.9.9.9h3.8c.44-.02.82.3.9.73.28 1.53.8 3.01 1.57 4.38l3.36-3.33a9.85 9.85 0 1 1 5.6 5.6l-3.33 3.36c1.11.6 2.3 1.06 3.53 1.36.42.1.7.47.7.9v4.01c0 .5.4.9.89.9h2.68c.5 0 .9-.4.9-.9v-3.81c0-.44.3-.82.74-.9 1.78-.32 3.5-.97 5.03-1.93a.9.9 0 0 1 1.11.12l2.6 2.6a.9.9 0 0 0 1.27 0l1.9-1.93a.9.9 0 0 0 0-1.26l-2.5-2.5a.9.9 0 0 1-.1-1.14 14.17 14.17 0 0 0 2.24-5.53.9.9 0 0 1 .9-.74h3.83c.5 0 .9-.4.9-.9z"/><mask id="oiu3c" width="2" height="2" x="-1" y="-1"><path fill="#fff" d="M261 777h43v43h-43z"/><use xlink:href="#oiu3a"/></mask><filter id="oiu3b" width="95" height="103" x="235" y="767" filterUnits="userSpaceOnUse"><feOffset dy="8" in="SourceGraphic" result="FeOffset1023Out"/><feGaussianBlur in="FeOffset1023Out" result="FeGaussianBlur1024Out" stdDeviation="6.4 6.4"/></filter></defs><g><g transform="translate(-243 -767)"><g filter="url(#oiu3b)"><use fill="none" stroke-opacity=".3" stroke-width="0" mask="url(&quot;#oiu3c&quot;)" xlink:href="#oiu3a"/><use fill="#414175" fill-opacity=".3" xlink:href="#oiu3a"/></g><use fill="#7171ca" xlink:href="#oiu3a"/></g></g></svg>
