<svg xmlns="http://www.w3.org/2000/svg" xmlns:xlink="http://www.w3.org/1999/xlink" width="82" height="80" viewBox="0 0 82 80"><defs><path id="z4eoa" d="M594.98 814.98a19.77 19.77 0 0 1-14.1 6.02c-2.86 0-4.77-.62-4.86-.65a.86.86 0 0 1-.55-.55c-.03-.1-.85-2.62-.6-6.22a19.76 19.76 0 0 1 5.98-12.73 19.77 19.77 0 0 1 12.73-5.97c3.6-.26 6.12.56 6.23.6.28.1.5.33.56.61l.01.03c.5 1.74 2.6 10.86-5.4 18.86zm-3.43-11.92l6.18-6.17a.9.9 0 0 1 .12-.1 17.64 17.64 0 0 0-6.3.08zm-7.48-2.76v10.24l5.76-5.76v-7.48a17.77 17.77 0 0 0-5.76 3zm-7.29 17.53l5.57-5.57V801.79l-.29.28a17.89 17.89 0 0 0-5.28 15.76zm13.82-1.47h-9.92l-2.68 2.68a17.6 17.6 0 0 0 12.6-2.68zm6.35-6.7h-9.56l-4.99 4.98h10.43a19.78 19.78 0 0 0 4.11-4.99zm2.1-11.67a.86.86 0 0 1-.1.12l-9.84 9.82h8.7a17.5 17.5 0 0 0 1.23-9.94zm-21.9 4.08a.86.86 0 0 1-1.21 0 20.5 20.5 0 0 0-2.96-2.46v9.98l.95.95a.86.86 0 1 1-1.22 1.22l-4.15-4.15h-8.52a19 19 0 0 0 4.2 6.15c2.33 2.33 4.99 3.95 7.9 4.8a.86.86 0 1 1-.48 1.66c-3.2-.94-6.1-2.7-8.64-5.24-8-8-5.9-17.12-5.4-18.86v-.03a.86.86 0 0 1 .57-.61c.1-.04 2.63-.86 6.23-.6 3.31.23 8.21 1.45 12.73 5.97.34.34.34.88 0 1.22zm-16.99-5.28l.06.05 5.2 5.2v-5.34a18.5 18.5 0 0 0-5.26.09zm-.73 9.1h7.41l-7.83-7.83a.9.9 0 0 1-.05-.06c-.3 1.73-.5 4.61.47 7.89zm11.83-7.32a17.18 17.18 0 0 0-4.12-1.55v6.73l4.12 4.13zm2.55 18.13a.86.86 0 0 1-1.07.59 16.98 16.98 0 0 1-5.21-2.6.86.86 0 1 1 1.01-1.38 15.25 15.25 0 0 0 4.69 2.33c.45.13.71.61.58 1.06zm-7.34-3.95a.86.86 0 0 1-1.21 0 .86.86 0 0 1 1.21-1.22c.34.34.34.88 0 1.22zm2.4-23.98c0 .48-.39.86-.86.86h-5.52a.86.86 0 0 1-.86-.86v-10.91c0-.47.39-.86.86-.86h5.52a.86.86 0 1 1 0 1.72h-4.66v3.74h3.21a.86.86 0 1 1 0 1.72h-3.2v3.73H568c.47 0 .86.39.86.86zm27.45-5.45a6.32 6.32 0 1 1-12.65-.02 6.32 6.32 0 0 1 12.65.02zm-1.72 0a4.6 4.6 0 1 0-9.2 0 4.6 4.6 0 0 0 9.2 0zm-13.05 3.25c.34.33.34.88 0 1.21a6.3 6.3 0 0 1-8.93 0 6.32 6.32 0 0 1 8.93-8.93.86.86 0 1 1-1.21 1.22 4.6 4.6 0 1 0 0 6.5.86.86 0 0 1 1.21 0zm-1.68 5.93v2.43a.86.86 0 0 1-1.72 0v-2.43a.86.86 0 0 1 1.72 0zm4.15 2.72l-1.75 1.76a.86.86 0 1 1-1.22-1.22l1.76-1.75a.86.86 0 0 1 1.21 1.21zm-7.07 1.73a.86.86 0 0 1-1.22 0l-1.75-1.76a.86.86 0 1 1 1.21-1.21l1.76 1.75c.33.34.33.88 0 1.22z"/><mask id="z4eoc" width="2" height="2" x="-1" y="-1"><path fill="#fff" d="M557 777h44v44h-44z"/><use xlink:href="#z4eoa"/></mask><filter id="z4eob" width="96" height="104" x="531" y="767" filterUnits="userSpaceOnUse"><feOffset dy="8" in="SourceGraphic" result="FeOffset1043Out"/><feGaussianBlur in="FeOffset1043Out" result="FeGaussianBlur1044Out" stdDeviation="6.4 6.4"/></filter></defs><g><g transform="translate(-538 -767)"><g filter="url(#z4eob)"><use fill="none" stroke-opacity=".3" stroke-width="0" mask="url(&quot;#z4eoc&quot;)" xlink:href="#z4eoa"/><use fill="#414175" fill-opacity=".3" xlink:href="#z4eoa"/></g><use fill="#7171ca" xlink:href="#z4eoa"/></g></g></svg>
