<svg xmlns="http://www.w3.org/2000/svg" xmlns:xlink="http://www.w3.org/1999/xlink" width="77" height="77" viewBox="0 0 77 77"><defs><path id="3ytca" d="M962 796.58v3.84c0 1.11-.82 2.07-1.92 2.23l-2.46.35a.24.24 0 0 0-.21.17 17.46 17.46 0 0 1-1.65 3.98.25.25 0 0 0 .02.27c.51.66 1.02 1.33 1.5 2 .66.88.57 2.14-.22 2.92l-2.72 2.72c-.78.79-2.04.88-2.93.22-.66-.48-1.32-.99-1.99-1.5a.25.25 0 0 0-.27-.02c-1.25.71-2.6 1.27-3.98 1.65-.1.02-.16.1-.17.2l-.35 2.47a2.27 2.27 0 0 1-2.23 1.92h-3.84c-1.11 0-2.07-.82-2.23-1.92l-.35-2.46a.24.24 0 0 0-.17-.21 17.47 17.47 0 0 1-3.98-1.65.25.25 0 0 0-.27.02c-.67.51-1.33 1.02-2 1.5-.88.66-2.14.57-2.92-.22l-2.72-2.72a2.27 2.27 0 0 1-.22-2.93c.48-.66.99-1.33 1.5-1.99a.25.25 0 0 0 .02-.27 17.46 17.46 0 0 1-1.65-3.98.24.24 0 0 0-.2-.17l-2.47-.35a2.27 2.27 0 0 1-1.92-2.23v-3.84c0-1.11.82-2.07 1.92-2.23l2.46-.35c.1-.01.19-.08.21-.17.38-1.39.94-2.73 1.65-3.98a.25.25 0 0 0-.02-.27c-.51-.66-1.02-1.33-1.5-2a2.27 2.27 0 0 1 .22-2.92l2.72-2.72a2.27 2.27 0 0 1 2.93-.22c.66.48 1.32.99 1.99 1.5.08.06.19.07.27.02 1.25-.71 2.6-1.27 3.98-1.65.1-.02.16-.1.17-.2l.35-2.47a2.27 2.27 0 0 1 2.23-1.92h3.84c1.11 0 2.07.82 2.23 1.92l.35 2.46c.01.1.08.19.17.21 1.39.38 2.73.94 3.98 1.65.09.05.2.04.27-.02.67-.51 1.33-1.02 2-1.5a2.27 2.27 0 0 1 2.92.22l2.72 2.72c.79.78.88 2.04.22 2.93-.48.66-.99 1.33-1.5 1.99a.24.24 0 0 0-.02.27c.71 1.25 1.27 2.6 1.65 3.98.02.1.1.16.2.17l2.47.35a2.27 2.27 0 0 1 1.92 2.23zm-2 3.84v-3.84a.25.25 0 0 0-.21-.25l-2.43-.34a2.25 2.25 0 0 1-1.89-1.63 15.45 15.45 0 0 0-1.46-3.52 2.25 2.25 0 0 1 .18-2.49c.5-.65 1-1.3 1.48-1.95a.25.25 0 0 0-.03-.32l-2.72-2.72a.25.25 0 0 0-.31-.03l-1.96 1.48c-.73.55-1.7.62-2.5.18-1.1-.63-2.28-1.12-3.51-1.46a2.25 2.25 0 0 1-1.63-1.89l-.34-2.43a.25.25 0 0 0-.25-.2h-3.84a.25.25 0 0 0-.25.2l-.34 2.43c-.11.9-.75 1.65-1.63 1.89-1.23.34-2.41.83-3.52 1.46-.79.44-1.76.37-2.49-.18-.65-.5-1.3-1-1.96-1.48a.25.25 0 0 0-.31.03l-2.72 2.72a.25.25 0 0 0-.03.32l1.48 1.95c.55.73.62 1.7.18 2.5-.63 1.1-1.12 2.29-1.46 3.51a2.25 2.25 0 0 1-1.89 1.63l-2.43.34a.25.25 0 0 0-.2.25v3.84c0 .12.09.23.2.25l2.43.34c.9.11 1.65.76 1.89 1.63.34 1.23.83 2.41 1.46 3.52.44.79.37 1.76-.18 2.49-.5.65-1 1.3-1.48 1.96-.07.1-.06.23.03.31l2.72 2.72c.08.09.22.1.31.03l1.96-1.48a2.25 2.25 0 0 1 2.5-.18c1.1.63 2.28 1.12 3.51 1.46.88.24 1.52.98 1.63 1.89l.34 2.43c.02.11.13.2.25.2h3.84c.12 0 .23-.09.25-.2l.34-2.43c.11-.9.75-1.65 1.63-1.89 1.23-.34 2.41-.83 3.52-1.46a2.25 2.25 0 0 1 2.49.18c.65.5 1.3 1 1.96 1.48.1.07.23.06.31-.03l2.72-2.72c.09-.08.1-.22.03-.31l-1.48-1.96a2.25 2.25 0 0 1-.18-2.5c.63-1.1 1.12-2.28 1.46-3.51.24-.88.98-1.52 1.89-1.63l2.43-.34c.11-.02.2-.13.2-.25zm-10.17-1.92a9.34 9.34 0 0 1-18.66 0 9.34 9.34 0 0 1 18.66 0zm-2 0a7.33 7.33 0 1 0-14.67.02 7.33 7.33 0 0 0 14.67-.02z"/><mask id="3ytcc" width="2" height="2" x="-1" y="-1"><path fill="#fff" d="M919 777h43v43h-43z"/><use xlink:href="#3ytca"/></mask><filter id="3ytcb" width="95" height="103" x="893" y="767" filterUnits="userSpaceOnUse"><feOffset dy="8" in="SourceGraphic" result="FeOffset1063Out"/><feGaussianBlur in="FeOffset1063Out" result="FeGaussianBlur1064Out" stdDeviation="6.4 6.4"/></filter></defs><g><g transform="translate(-902 -768)"><g filter="url(#3ytcb)"><use fill="none" stroke-opacity=".3" stroke-width="0" mask="url(&quot;#3ytcc&quot;)" xlink:href="#3ytca"/><use fill="#414175" fill-opacity=".3" xlink:href="#3ytca"/></g><use fill="#7171ca" xlink:href="#3ytca"/></g></g></svg>
