<svg xmlns="http://www.w3.org/2000/svg" xmlns:xlink="http://www.w3.org/1999/xlink" width="81" height="78" viewBox="0 0 81 78"><defs><path id="ws76a" d="M1295.01 791.23c0 .47-.39.86-.87.86h-16.24a.87.87 0 0 1-.88-.86c0-.48.4-.86.88-.86h16.24c.48 0 .87.38.87.86zm-6.96 5.73c0 .48-.4.86-.87.86h-9.28a.87.87 0 0 1-.88-.86c0-.47.4-.86.88-.86h9.28c.48 0 .87.39.87.86zm11.6 9.23a3.75 3.75 0 0 1-3.77 3.72 3.75 3.75 0 0 1-3.77-3.72 3.75 3.75 0 0 1 3.77-3.73 3.75 3.75 0 0 1 3.77 3.73zm-1.74 0c0-1.11-.9-2.01-2.03-2.01-1.12 0-2.03.9-2.03 2 0 1.11.91 2.01 2.03 2.01 1.12 0 2.03-.9 2.03-2zm15.09-23.9v30.51c0 1.26-1.04 2.3-2.32 2.3h-7.1l1.32 3.45c.06.14.1.3.1.48 0 .27-.12.6-.36.83-.25.22-.56.3-.81.3-.1 0-.18 0-.26-.02l-2.17-.39-.06.02-.06.03-1.37 1.7v.01c-.1.12-.22.24-.38.33a1.13 1.13 0 0 1-1.3-.11c-.2-.16-.3-.35-.38-.53l-1.8-4.71-1.82 4.7a1.3 1.3 0 0 1-.37.54 1.13 1.13 0 0 1-1.3.11c-.17-.09-.3-.2-.39-.33l-1.37-1.71-.03-.03-.09-.02-2.17.39-.25.02c-.26 0-.57-.08-.81-.3a1.12 1.12 0 0 1-.36-.83c0-.18.04-.34.1-.48l1.32-3.46h-20.19a2.31 2.31 0 0 1-2.32-2.29v-30.5c0-1.27 1.04-2.3 2.32-2.3h42.36a2.31 2.31 0 0 1 2.32 2.3zm-18.02 32.11a8.43 8.43 0 0 1-3.81-1.38l-2.02 5.26 1.24-.22.3-.03a1.98 1.98 0 0 1 1.47.69l.79.98zm7.58-8.26c0-3.64-3-6.6-6.68-6.6a6.64 6.64 0 0 0-6.67 6.6c0 3.63 3 6.6 6.67 6.6a6.64 6.64 0 0 0 6.68-6.6zm-15.1 0c0-4.6 3.77-8.32 8.42-8.32a8.36 8.36 0 0 1 8.42 8.32c0 .7-.1 1.4-.27 2.05h2v-21.88h-33.07v21.88h14.78a8.2 8.2 0 0 1-.27-2.05zm15.48 12.14l-2.1-5.44a8.4 8.4 0 0 1-3.75 1.52l2.05 5.34.78-.98a1.97 1.97 0 0 1 1.77-.66zm8.32-5.48v-30.5a.58.58 0 0 0-.58-.58h-42.36a.58.58 0 0 0-.58.57v30.51c0 .31.27.57.58.57h20.85l.6-1.54c-.55-.57-1.01-1.21-1.38-1.92h-16.59a.58.58 0 0 1-.58-.57v-24.18c0-.32.26-.57.58-.57h35.4c.32 0 .58.25.58.57v24.18c0 .32-.26.57-.58.57h-3.83c-.31.6-.7 1.17-1.14 1.68l.68 1.78h7.77c.31 0 .58-.26.58-.57z"/><mask id="ws76c" width="2" height="2" x="-1" y="-1"><path fill="#fff" d="M1266 780h47v42h-47z"/><use xlink:href="#ws76a"/></mask><filter id="ws76b" width="99" height="102" x="1240" y="770" filterUnits="userSpaceOnUse"><feOffset dy="8" in="SourceGraphic" result="FeOffset1083Out"/><feGaussianBlur in="FeOffset1083Out" result="FeGaussianBlur1084Out" stdDeviation="6.4 6.4"/></filter></defs><g><g transform="translate(-1249 -770)"><g filter="url(#ws76b)"><use fill="none" stroke-opacity=".3" stroke-width="0" mask="url(&quot;#ws76c&quot;)" xlink:href="#ws76a"/><use fill="#414175" fill-opacity=".3" xlink:href="#ws76a"/></g><use fill="#7171ca" xlink:href="#ws76a"/></g></g></svg>
